# AST/ASF file generated using VICON BodyLanguage
# -----------------------------------------------
:version 1.10
:name VICON
:units
  mass 1.0
  length 0.45
  angle deg
:documentation
   .ast/.asf automatically generated from VICON data using
   VICON BodyBuilder and BodyLanguage model FoxedUp or BRILLIANT.MOD
:root
   order TX TY TZ RX RY RZ
   axis XYZ
   position 0 0 0  
   orientation 0 0 0 
:bonedata
  begin
     id 1 
     name lhipjoint
     direction 0.576517 -0.752066 0.319413 
     length 2.45433 
     axis 0 0 0  XYZ
  end
  begin
     id 2 
     name lfemur
     direction 0.34202 -0.939693 0  
     length 7.54459  
     axis 0 0 20  XYZ
    dof rx ry rz
    limits (-160.0 20.0)
           (-70.0 70.0)
           (-60.0 70.0)
  end
  begin
     id 3 
     name ltibia
     direction 0.34202 -0.939693 0   
     length 7.73986   
     axis 0 0 20   XYZ
    dof rx
    limits (-10.0 170.0)
  end
  begin
     id 4 
     name lfoot
     direction 0.090693 -0.249177 0.964202   
     length 2.28437   
     axis -90 7.62852e-016 20   XYZ
    dof rx rz
    limits (-45.0 90.0)
           (-70.0 20.0)
  end
  begin
     id 5 
     name ltoes
     direction 1.5356e-011 -4.21928e-011 1   
     length 1.14243   
     axis -90 7.62852e-016 20   XYZ
    dof rx
    limits (-90.0 20.0)
  end
  begin
     id 6 
     name rhipjoint
     direction -0.573937 -0.753736 0.320122   
     length 2.44889  
     axis 0 0 0  XYZ 
  end
  begin
     id 7 
     name rfemur
     direction -0.34202 -0.939693 0   
     length 7.50166   
     axis 0 0 -20   XYZ
    dof rx ry rz
    limits (-160.0 20.0)
           (-70.0 70.0)
           (-70.0 60.0)
  end
  begin
     id 8 
     name rtibia
     direction -0.34202 -0.939693 0   
     length 7.54266   
     axis 0 0 -20   XYZ
    dof rx
    limits (-10.0 170.0)
 end
 begin
     id 9 
     name rfoot
     direction -0.114017 -0.31326 0.942798   
     length 2.34212  
     axis -90 -7.62852e-016 -20   XYZ
    dof rx rz
    limits (-45.0 90.0)
           (-20.0 70.0)
  end
  begin
     id 10 
     name rtoes
     direction -1.53557e-011 -4.21867e-011 1   
     length 1.16246   
     axis -90 -7.62852e-016 -20   XYZ
    dof rx
    limits (-90.0 20.0)
  end
  begin
     id 11 
     name lowerback
     direction -0.0228371 0.999155 -0.034167   
     length 2.0537   
     axis 0 0 0   XYZ
    dof rx ry rz
    limits (-20.0 45.0)
           (-30.0 30.0)
           (-30.0 30.0)
  end
  begin
     id 12 
     name upperback
     direction 0.0198981 0.999794 0.00389455   
     length 2.05302   
     axis 0 0 0   XYZ
    dof rx ry rz
    limits (-20.0 45.0)
           (-30.0 30.0)
           (-30.0 30.0)
  end
  begin
     id 13 
     name thorax
     direction 0.0304566 0.99935 0.0192987   
     length 2.05315   
     axis 0 0 0   XYZ
    dof rx ry rz
    limits (-20.0 45.0)
           (-30.0 30.0)
           (-30.0 30.0)
  end
  begin
     id 14 
     name lowerneck
     direction -0.0196762 0.99417 0.106017   
     length 1.82056   
     axis 0 0 0   XYZ
    dof rx ry rz
    limits (-20.0 45.0)
           (-30.0 30.0)
           (-30.0 30.0)
  end
  begin
     id 15 
     name upperneck
     direction 0.00517787 0.9802 -0.197944   
     length 1.83835   
     axis 0 0 0   XYZ
    dof rx ry rz
    limits (-20.0 45.0)
           (-30.0 30.0)
           (-30.0 30.0)
  end
  begin
     id 16
     name head
     direction 0.00211419 0.996945 -0.078081  
     length 1.85629  
     axis 0 0 0   XYZ
    dof rx ry rz
    limits (-20.0 45.0)
           (-30.0 30.0)
           (-30.0 30.0)
  end
  begin
     id 17 
     name lclavicle
     direction 0.930001 0.365811 -0.0357824  
     length 3.81961  
     axis 0 0 0   XYZ
    dof ry rz
    limits (-20.0 10.0)
           (0.0 20.0)
  end
  begin
     id 18 
     name lhumerus
     direction 1 -4.48968e-011 -3.06644e-027   
     length 5.14507   
     axis 180 -30 -90   XYZ
    dof rx ry rz
    limits (-60.0 90.0)
           (-90.0 90.0)
           (-90.0 90.0)
  end
  begin
     id 19
     name lradius
     direction 1 -4.48965e-011 9.06925e-028   
     length 3.50646   
     axis 180 -30 -90   XYZ
    dof rx
    limits (-10.0 170.0)
  end
  begin
     id 20
     name lwrist
     direction 1 -4.48957e-011 1.03922e-027   
     length 1.75323   
     axis -2.56395e-016 90 90   XYZ
    dof ry
    limits (-180.0 0.0)
 end
  begin
     id 21 
     name lhand
     direction 1 -4.48967e-011 2.08017e-027   
     length 0.629969   
     axis -1.32723e-015 90 90   XYZ
    dof rx rz
    limits (-90.0 90.0)
           (-45.0 45.0)
  end
  begin
     id 22 
     name lfingers
     direction 1 -4.49089e-011 4.20095e-027   
     length 0.507897   
     axis -2.6545e-015 90 90   XYZ
    dof rx
    limits (0.0 90.0)
  end
  begin
     id 23
     name lthumb
     direction 0.707107 -6.35001e-011 0.707107   
     length 0.729241   
     axis -90 45 5.05613e-014   XYZ
    dof rx rz
    limits (-45.0 45.0)
           (-45.0 45.0)
  end
  begin
     id 24 
     name rclavicle
     direction -0.881882 0.464123 -0.0829113   
     length 3.47515  
     axis 0 0 0   XYZ 
    dof ry rz
    limits (-10.0 20.0)
           (-20.0 0.0)
  end
  begin
     id 25 
     name rhumerus
     direction -1 -4.48961e-011 -1.55672e-027  
     length 5.232   
     axis 180 30 90   XYZ
    dof rx ry rz
    limits (-90.0 60.0)
           (-90.0 90.0)
           (-90.0 90.0)
  end
  begin
     id 26 
     name rradius
     direction -1 -4.48963e-011 6.18178e-029   
     length 3.65641   
     axis 180 30 90   XYZ
    dof rx
    limits (-10.0 170.0)
  end
  begin
     id 27 
     name rwrist
     direction -1 -4.48982e-011 1.04136e-027   
     length 1.8282   
     axis -2.56395e-016 -90 -90   XYZ
    dof ry
    limits (-180.0 0.0)
  end
  begin
     id 28
     name rhand
     direction -1 -4.48929e-011 2.07378e-027   
     length 0.656807   
     axis -1.32723e-015 -90 -90   XYZ
    dof rx rz
    limits (-90.0 90.0)
           (-45.0 45.0)
  end
  begin
     id 29
     name rfingers
     direction -1 -4.489e-011 4.13816e-027   
     length 0.529535   
     axis -2.6545e-015 -90 -90   XYZ
    dof rx
    limits (0.0 90.0)
  end
  begin
     id 30
     name rthumb
     direction -0.707107 -6.34843e-011 0.707107   
     length 0.760309   
     axis -90 -45 -5.05613e-014   XYZ
    dof rx rz
    limits (-45.0 45.0)
           (-45.0 45.0)
  end
:hierarchy
  begin
    root lhipjoint rhipjoint lowerback
    lhipjoint lfemur
    lfemur ltibia
    ltibia lfoot
    lfoot ltoes
    rhipjoint rfemur
    rfemur rtibia
    rtibia rfoot
    rfoot rtoes
    lowerback upperback
    upperback thorax
    thorax lowerneck lclavicle rclavicle
    lowerneck upperneck
    upperneck head
    lclavicle lhumerus
    lhumerus lradius
    lradius lwrist
    lwrist lhand lthumb
    lhand lfingers
    rclavicle rhumerus
    rhumerus rradius
    rradius rwrist
    rwrist rhand rthumb
    rhand rfingers
  end

#!OML:ASF H:\ManfredETheater\Project 1\Capture day 1\Session 1\subject.ASF
:FULLY-SPECIFIED
:DEGREES
33
root 5.12958 16.0189 19.9671 -160.13 -5.1147 -180.42
lowerback 8.50055 -3.21229 -1.77702
upperback -1.88746 -4.33006 3.79205
thorax -6.32416 -2.02159 5.58737
lowerneck -22.1996 3.43197 1.66889
upperneck 8.54047 5.04699 -5.30456
head 6.34627 2.11069 -1.39217
rclavicle 5.56597e-014 -3.10104e-014
rhumerus -75.175 -2.73649 -67.0072
rradius 89.0032
rwrist -8.61087
rhand -31.039 10.8564
rfingers 7.12502
rthumb -4.32083 -19.0795
lclavicle 5.56597e-014 -3.10104e-014
lhumerus -46.0506 -19.2579 99.3056
lradius 132.673
lwrist 10.7633
lhand -21.5988 -14.1069
lfingers 7.12502
lthumb 4.79615 15.8188
rfemur -61.3039 -9.02725 4.74347
rtibia 35.3087
rfoot 9.68532 -6.78774
rtoes -43.5246
lfemur 10.1271 -10.3946 -32.9656
ltibia 37.0205
lfoot 7.99305 -0.89108
ltoes 6.68239
34
root 5.10206 15.9796 19.4321 -160.438 -6.03206 -180.422
lowerback 8.30261 -3.41026 -1.55136
upperback -1.90205 -4.57134 3.93997
thorax -6.20702 -2.15394 5.63169
lowerneck -22.1084 3.75866 1.93566
upperneck 8.93763 5.52892 -5.98916
head 6.51052 2.28534 -1.59693
rclavicle -4.57205e-014 1.82882e-014
rhumerus -74.9915 -2.45323 -66.2095
rradius 89.6102
rwrist -8.28524
rhand -30.8109 11.099
rfingers 7.12502
rthumb -4.10058 -18.8413
lclavicle -4.57205e-014 1.82882e-014
lhumerus -46.0956 -19.0405 98.8636
lradius 131.613
lwrist 10.2777
lhand -21.4814 -13.9939
lfingers 7.12502
lthumb 4.90956 15.9292
rfemur -59.98 -9.02044 3.71914
rtibia 34.0681
rfoot 10.2351 -7.36336
rtoes -43.7317
lfemur 10.4319 -10.9143 -32.8228
ltibia 39.5686
lfoot 7.08723 -1.03741
ltoes 6.23065
35
root 5.07471 15.9335 18.9014 -160.8 -6.99844 -180.352
lowerback 8.20069 -3.5837 -1.26687
upperback -1.90842 -4.77582 4.09995
thorax -6.14405 -2.2693 5.65814
lowerneck -21.9874 4.06959 2.18887
upperneck 9.29999 6.00247 -6.66803
head 6.6632 2.45813 -1.79854
rclavicle 2.16675e-014 -1.03368e-014
rhumerus -74.643 -2.15603 -65.4383
rradius 90.1408
rwrist -7.98437
rhand -30.6248 11.2979
rfingers 7.12502
rthumb -3.92079 -18.6458
lclavicle 2.16675e-014 -1.03368e-014
lhumerus -46.1076 -18.7044 98.46
lradius 130.262
lwrist 9.88247
lhand -21.3329 -13.8456
lfingers 7.12502
lthumb 5.0529 16.0742
rfemur -58.671 -8.94335 2.77452
rtibia 33.5177
rfoot 10.3854 -7.77959
rtoes -43.7185
lfemur 10.4744 -11.3809 -32.5622
ltibia 42.5656
lfoot 6.34007 -1.50736
ltoes 5.58592
36
root 5.04763 15.8796 18.3763 -161.231 -7.97339 -180.214
lowerback 8.21804 -3.72083 -0.943597
upperback -1.903 -4.92883 4.26451
thorax -6.14539 -2.35937 5.67145
lowerneck -21.8431 4.35649 2.41853
upperneck 9.63529 6.45441 -7.31548
head 6.80538 2.62427 -1.98875
rclavicle 1.59028e-014 3.97569e-015
rhumerus -74.1236 -1.8547 -64.6933
rradius 90.5739
rwrist -7.70943
rhand -30.4933 11.4312
rfingers 7.12502
rthumb -3.79388 -18.5148
lclavicle 1.59028e-014 3.97569e-015
lhumerus -46.0915 -18.2608 98.111
lradius 128.635
lwrist 9.58314
lhand -21.2082 -13.674
lfingers 7.12502
lthumb 5.17333 16.2428
rfemur -57.4339 -8.8384 1.98837
rtibia 33.7365
rfoot 10.4384 -7.84687
rtoes -42.688
lfemur 10.2857 -11.7903 -32.2132
ltibia 45.9597
lfoot 5.70168 -2.16177
ltoes 4.91595
37
root 5.02055 15.8174 17.8594 -161.738 -8.89545 -180.013
lowerback 8.37689 -3.80583 -0.601006
upperback -1.87719 -5.00954 4.42003
thorax -6.21599 -2.41309 5.668
lowerneck -21.6684 4.61121 2.63453
upperneck 9.92093 6.86787 -7.92908
head 6.92695 2.77731 -2.17082
rclavicle -5.76476e-014 -2.8625e-014
rhumerus -73.4041 -1.56797 -63.9859
rradius 90.8773
rwrist -7.45209
rhand -30.4065 11.4965
rfingers 7.12502
rthumb -3.71005 -18.451
lclavicle -5.76476e-014 -2.8625e-014
lhumerus -46.0336 -17.7147 97.8089
lradius 126.754
lwrist 9.39387
lhand -21.1383 -13.4922
lfingers 7.12502
lthumb 5.2408 16.423
rfemur -56.3266 -8.79494 1.48068
rtibia 34.7565
rfoot 9.84693 -7.57586
rtoes -41.9418
lfemur 9.87533 -12.0793 -31.81
ltibia 49.7027
lfoot 5.0849 -2.87774
ltoes 4.1405
38
root 4.9918 15.7479 17.3532 -162.344 -9.71183 -179.729
lowerback 8.72042 -3.82616 -0.219583
upperback -1.82134 -4.99689 4.56018
thorax -6.37381 -2.42071 5.63106
lowerneck -21.4955 4.83906 2.83173
upperneck 10.1827 7.24624 -8.4851
head 7.03939 2.91903 -2.33547
rclavicle 5.66536e-014 1.35174e-014
rhumerus -72.4612 -1.30269 -63.3243
rradius 91.0231
rwrist -7.21004
rhand -30.3466 11.4815
rfingers 7.12502
rthumb -3.65217 -18.467
lclavicle 5.66536e-014 1.35174e-014
lhumerus -45.9217 -17.0586 97.5448
lradius 124.635
lwrist 9.29536
lhand -21.144 -13.3078
lfingers 7.12502
lthumb 5.2353 16.6076
rfemur -55.3832 -8.84404 1.31066
rtibia 36.544
rfoot 8.65552 -7.05862
rtoes -41.3419
lfemur 9.27234 -12.1965 -31.3611
ltibia 53.7379
lfoot 4.39124 -3.55447
ltoes 3.33898
39
root 4.96 15.6724 16.8603 -163.074 -10.3709 -179.302
lowerback 9.27697 -3.76892 0.258064
upperback -1.7221 -4.86513 4.69067
thorax -6.62625 -2.37281 5.53162
lowerneck -21.3224 5.0374 3.0287
upperneck 10.3957 7.57998 -8.99972
head 7.13408 3.0451 -2.49239
rclavicle -2.72335e-014 -3.33958e-014
rhumerus -71.2667 -1.06456 -62.7229
rradius 90.9855
rwrist -6.98668
rhand -30.2862 11.3974
rfingers 7.12502
rthumb -3.5938 -18.5521
lclavicle -2.72335e-014 -3.33958e-014
lhumerus -45.7362 -16.2747 97.3043
lradius 122.291
lwrist 9.2504
lhand -21.2207 -13.118
lfingers 7.12502
lthumb 5.16125 16.7991
rfemur -54.5986 -8.96307 1.52714
rtibia 38.9837
rfoot 6.88613 -6.48386
rtoes -40.9472
lfemur 8.49955 -12.076 -30.8202
ltibia 58.0066
lfoot 3.57744 -4.11769
ltoes 2.54209
40
root 4.92343 15.5926 16.3817 -163.952 -10.8667 -178.669
lowerback 10.0521 -3.63768 0.914384
upperback -1.56314 -4.60676 4.82347
thorax -6.96233 -2.27149 5.33081
lowerneck -21.1509 5.21319 3.24777
upperneck 10.5412 7.87296 -9.49588
head 7.20662 3.15704 -2.65228
rclavicle -2.04748e-014 3.33958e-014
rhumerus -69.7959 -0.857818 -62.1978
rradius 90.7392
rwrist -6.78102
rhand -30.2208 11.2401
rfingers 7.12502
rthumb -3.53071 -18.7104
lclavicle -2.04748e-014 3.33958e-014
lhumerus -45.4576 -15.3521 97.076
lradius 119.724
lwrist 9.20988
lhand -21.3555 -12.9183
lfingers 7.12502
lthumb 5.03114 17.002
rfemur -53.8979 -9.113 2.14236
rtibia 41.8903
rfoot 4.60556 -5.97208
rtoes -40.8754
lfemur 7.57266 -11.6611 -30.1005
ltibia 62.4427
lfoot 2.60969 -4.57411
ltoes 1.56822
41
root 4.8805 15.512 15.9172 -164.976 -11.1986 -177.784
lowerback 11.0281 -3.444 1.8009
upperback -1.34275 -4.22565 4.9736
thorax -7.36642 -2.12411 5.0088
lowerneck -20.9722 5.37082 3.49028
upperneck 10.6049 8.12823 -9.97678
head 7.25078 3.25688 -2.81626
rclavicle -8.74653e-015 3.97569e-015
rhumerus -68.0311 -0.672519 -61.7628
rradius 90.2576
rwrist -6.60209
rhand -30.1466 11.0341
rfingers 7.12502
rthumb -3.45904 -18.9176
lclavicle -8.74653e-015 3.97569e-015
lhumerus -45.0846 -14.2655 96.8558
lradius 116.945
lwrist 9.16069
lhand -21.511 -12.7045
lfingers 7.12502
lthumb 4.88099 17.2193
rfemur -53.1897 -9.21549 3.10431
rtibia 45.0365
rfoot 1.99343 -5.61313
rtoes -41.3367
lfemur 6.48985 -10.9301 -29.1251
ltibia 66.9727
lfoot 1.48148 -4.93042
ltoes 0.520251
42
root 4.83065 15.4343 15.4654 -166.11 -11.3951 -176.654
lowerback 12.1465 -3.20759 2.91068
upperback -1.06142 -3.74357 5.15436
thorax -7.79348 -1.94505 4.57559
lowerneck -20.8066 5.50713 3.75551
upperneck 10.5871 8.34126 -10.4489
head 7.26964 3.34141 -2.98664
rclavicle 2.04748e-014 -7.07673e-014
rhumerus -65.9563 -0.498646 -61.4219
rradius 89.5274
rwrist -6.47394
rhand -30.0676 10.786
rfingers 7.12502
rthumb -3.38274 -19.1669
lclavicle 2.04748e-014 -7.07673e-014
lhumerus -44.6048 -13.0064 96.6467
lradius 113.952
lwrist 9.10779
lhand -21.6704 -12.4782
lfingers 7.12502
lthumb 4.72704 17.449
rfemur -52.3834 -9.22877 4.32769
rtibia 48.19
rfoot -0.732085 -5.45778
rtoes -42.231
lfemur 5.21989 -9.89487 -27.8398
ltibia 71.5246
lfoot 0.213718 -5.21881
ltoes -0.560761
43
root 4.77526 15.364 15.0232 -167.275 -11.5249 -175.355
lowerback 13.3031 -2.95482 4.15488
upperback -0.734349 -3.20598 5.37321
thorax -8.18224 -1.75493 4.08512
lowerneck -20.6634 5.61444 4.00336
upperneck 10.49 8.5067 -10.8858
head 7.26149 3.40835 -3.14887
rclavicle 1.43125e-014 -5.56597e-014
rhumerus -63.5694 -0.327406 -61.17
rradius 88.5376
rwrist -6.39571
rhand -29.9894 10.4977
rfingers 7.12502
rthumb -3.30718 -19.4564
lclavicle 1.43125e-014 -5.56597e-014
lhumerus -44.0193 -11.5917 96.4624
lradius 110.749
lwrist 9.12328
lhand -21.8378 -12.2304
lfingers 7.12502
lthumb 4.56542 17.7004
rfemur -51.4078 -9.17479 5.69831
rtibia 51.1459
rfoot -3.3923 -5.44513
rtoes -43.2516
lfemur 3.70751 -8.62449 -26.2447
ltibia 76.0263
lfoot -1.18175 -5.47286
ltoes -1.68388
44
root 4.71556 15.3038 14.5881 -168.37 -11.6537 -173.992
lowerback 14.3892 -2.70123 5.42092
upperback -0.394048 -2.65319 5.62921
thorax -8.49291 -1.56732 3.60077
lowerneck -20.5501 6.04215 4.0729
upperneck 10.419 8.5742 -11.2064
head 7.24899 3.12719 -3.29452
rclavicle 2.14687e-014 -4.77083e-015
rhumerus -60.9066 -0.139496 -60.991
rradius 87.2981
rwrist -6.35231
rhand -29.9173 10.1892
rfingers 7.12502
rthumb -3.2376 -19.766
lclavicle 2.14687e-014 -4.77083e-015
lhumerus -43.3507 -10.0672 96.3215
lradius 107.352
lwrist 9.31762
lhand -22.0644 -12.0001
lfingers 7.12502
lthumb 4.34653 17.9353
rfemur -50.2199 -9.10553 7.09203
rtibia 53.6831
rfoot -5.8679 -5.5033
rtoes -44.3557
lfemur 1.8811 -7.19931 -24.4024
ltibia 80.3884
lfoot -2.62733 -5.69576
ltoes -2.66489
